<?xml version="1.0" encoding="utf-8"?>
<!-- Generator: Adobe Illustrator 28.0.0, SVG Export Plug-In . SVG Version: 6.00 Build 0)  -->
<svg version="1.1" id="Calque_1" xmlns="http://www.w3.org/2000/svg" xmlns:xlink="http://www.w3.org/1999/xlink" x="0px" y="0px"
	 viewBox="0 0 142.4 142.4" style="enable-background:new 0 0 142.4 142.4;" xml:space="preserve">
<style type="text/css">
	.st0{fill:#FF0000;}
	.st1{fill:#ABB2BF;}
	.st2{fill:#0077B5;}
</style>
<text transform="matrix(1 0 0 1 -1916.4783 480.885)"><tspan x="0" y="0" class="st0" style="font-family:'Consolas'; font-size:133.0149px;">exek</tspan><tspan x="292.5" y="0" class="st1" style="font-family:'CourierNewPS-BoldMT'; font-size:133.0149px;">Sourcing</tspan></text>
<text transform="matrix(1 0 0 1 -1616.5613 478.6288)"><tspan x="0" y="0" style="font-family:'CourierNewPSMT'; font-size:12px;">exe</tspan><tspan x="21.6" y="0" style="font-family:'CourierNewPSMT'; font-size:12px;">k</tspan><tspan x="29.6" y="0" style="font-family:'CourierNewPSMT'; font-size:12px;">Sourcing</tspan></text>
<image style="overflow:visible;" width="1024" height="506" xlink:href="ED2C954C9DF53A2F.jpg"  transform="matrix(1 0 0 1 -1972.5325 -116.671)">
</image>
<text transform="matrix(1 0 0 1 -730.9226 -65.3683)"><tspan x="0" y="0" style="font-family:'MyriadPro-Regular'; font-size:12px;">Gris: #ABB2BF</tspan><tspan x="0" y="14.4" style="font-family:'MyriadPro-Regular'; font-size:12px;">Bleu: #0077B5</tspan><tspan x="0" y="28.8" style="font-family:'MyriadPro-Regular'; font-size:12px;">Font: Consolas, &apos;Courier New&apos;, monospace</tspan><tspan x="0" y="43.2" style="font-family:'MyriadPro-Regular'; font-size:12px;">Size: 1.9 x 9 cm</tspan><tspan x="0" y="72" style="font-family:'MyriadPro-Regular'; font-size:12px;">Auguementer l&apos;épaisseur du cercle de 10%</tspan></text>
<text transform="matrix(1 0 0 1 -673.8336 389.1067)"><tspan x="0" y="0" class="st1" style="font-family:'Consolas'; font-size:47.4343px;">exek</tspan><tspan x="104.3" y="0" class="st0" style="font-family:'CourierNewPS-BoldMT'; font-size:47.4343px;">Sourcing</tspan></text>
<g>
	<g>
		<path class="st0" d="M-485.9,299.1L-505,313v10.7c0,0.8,0.9,1.3,1.5,0.8l26.6-20.2v-11.2l-26.6-20.2c-0.6-0.5-1.5,0-1.5,0.8v10.7
			l19.1,13.8C-485.6,298.4-485.6,298.9-485.9,299.1z"/>
		<path class="st0" d="M-529.8,299.1l19.1,13.8v10.7c0,0.8-0.9,1.3-1.5,0.8l-26.6-20.2v-11.2l26.6-20.2c0.6-0.5,1.5,0,1.5,0.8v10.7
			l-19.1,13.8C-530.2,298.4-530.2,298.9-529.8,299.1z"/>
	</g>
	<path class="st1" d="M-507.8,341.9c-24.2,0-43.9-19.7-43.9-43.9c0-24.2,19.7-43.9,43.9-43.9c24.2,0,43.9,19.7,43.9,43.9
		C-463.9,322.2-483.6,341.9-507.8,341.9z M-507.8,258.6c-21.7,0-39.3,17.6-39.3,39.3c0,21.7,17.6,39.3,39.3,39.3
		c21.7,0,39.3-17.6,39.3-39.3C-468.5,276.3-486.1,258.6-507.8,258.6z"/>
</g>
<text transform="matrix(1 0 0 1 -633.9451 522.2875)"><tspan x="0" y="0" class="st1" style="font-family:'Consolas'; font-size:15.3282px;">exek</tspan><tspan x="33.7" y="0" class="st0" style="font-family:'CourierNewPS-BoldMT'; font-size:15.3282px;">Sourcing</tspan></text>
<g>
	<g>
		<path class="st0" d="M-573.2,493.2l-6.2,4.5v3.5c0,0.3,0.3,0.4,0.5,0.2l8.6-6.5v-3.6l-8.6-6.5c-0.2-0.2-0.5,0-0.5,0.2v3.5l6.2,4.5
			C-573.1,493-573.1,493.1-573.2,493.2z"/>
		<path class="st0" d="M-587.4,493.2l6.2,4.5v3.5c0,0.3-0.3,0.4-0.5,0.2l-8.6-6.5v-3.6l8.6-6.5c0.2-0.2,0.5,0,0.5,0.2v3.5l-6.2,4.5
			C-587.5,493-587.5,493.1-587.4,493.2z"/>
	</g>
	<path class="st1" d="M-580.3,507c-7.8,0-14.2-6.4-14.2-14.2c0-7.8,6.4-14.2,14.2-14.2c7.8,0,14.2,6.4,14.2,14.2
		C-566.1,500.7-572.5,507-580.3,507z M-580.3,480.1c-7,0-12.7,5.7-12.7,12.7c0,7,5.7,12.7,12.7,12.7s12.7-5.7,12.7-12.7
		C-567.6,485.8-573.3,480.1-580.3,480.1z"/>
</g>
<g>
	<g>
		<path class="st1" d="M473.1,240.1c0,0.9,0,1.7,0,2.3c0,0.6-0.1,1.2-0.1,1.8h-26.5c0,3.9,1.1,6.8,3.2,8.9c2.2,2.1,5.3,3.1,9.3,3.1
			c1.1,0,2.2,0,3.3-0.1c1.1-0.1,2.2-0.2,3.2-0.4c1-0.1,2-0.3,2.9-0.5c0.9-0.2,1.8-0.4,2.6-0.6v5.4c-1.8,0.5-3.8,0.9-6,1.2
			c-2.2,0.3-4.6,0.5-7,0.5c-3.2,0-6-0.4-8.3-1.3c-2.3-0.9-4.2-2.1-5.7-3.8c-1.5-1.7-2.6-3.7-3.3-6.1c-0.7-2.4-1.1-5.1-1.1-8.2
			c0-2.7,0.4-5.2,1.1-7.5c0.8-2.4,1.9-4.4,3.3-6.2c1.5-1.8,3.3-3.2,5.4-4.3c2.1-1.1,4.5-1.6,7.2-1.6c2.6,0,5,0.4,7,1.2
			c2,0.8,3.7,2,5.1,3.5c1.4,1.5,2.4,3.4,3.2,5.5C472.7,235,473.1,237.5,473.1,240.1z M466.3,239.2c0.1-1.7-0.1-3.2-0.5-4.6
			c-0.4-1.4-1-2.6-1.9-3.6c-0.8-1-1.9-1.8-3.1-2.3c-1.3-0.6-2.7-0.8-4.4-0.8c-1.4,0-2.7,0.3-3.9,0.8c-1.2,0.6-2.2,1.3-3,2.3
			c-0.9,1-1.5,2.2-2.1,3.6c-0.5,1.4-0.9,2.9-1,4.6H466.3z"/>
		<path class="st1" d="M517.5,261h-8.7l-10.2-14.4L488.6,261h-8.4l14.6-18.9l-13.9-18.8h8.4l9.9,14.5l9.7-14.5h8.1l-14.2,18.9
			L517.5,261z"/>
		<path class="st1" d="M557.6,240.1c0,0.9,0,1.7,0,2.3c0,0.6-0.1,1.2-0.1,1.8H531c0,3.9,1.1,6.8,3.2,8.9c2.2,2.1,5.3,3.1,9.3,3.1
			c1.1,0,2.2,0,3.3-0.1c1.1-0.1,2.2-0.2,3.2-0.4c1-0.1,2-0.3,2.9-0.5c0.9-0.2,1.8-0.4,2.6-0.6v5.4c-1.8,0.5-3.8,0.9-6,1.2
			c-2.2,0.3-4.6,0.5-7,0.5c-3.2,0-6-0.4-8.3-1.3c-2.3-0.9-4.2-2.1-5.7-3.8c-1.5-1.7-2.6-3.7-3.3-6.1c-0.7-2.4-1.1-5.1-1.1-8.2
			c0-2.7,0.4-5.2,1.1-7.5c0.8-2.4,1.9-4.4,3.3-6.2c1.5-1.8,3.3-3.2,5.4-4.3c2.1-1.1,4.5-1.6,7.2-1.6c2.6,0,5,0.4,7,1.2
			c2,0.8,3.7,2,5.1,3.5c1.4,1.5,2.4,3.4,3.2,5.5C557.3,235,557.6,237.5,557.6,240.1z M550.8,239.2c0.1-1.7-0.1-3.2-0.5-4.6
			c-0.4-1.4-1-2.6-1.9-3.6c-0.8-1-1.9-1.8-3.1-2.3c-1.3-0.6-2.7-0.8-4.4-0.8c-1.4,0-2.7,0.3-3.9,0.8c-1.2,0.6-2.2,1.3-3,2.3
			c-0.9,1-1.5,2.2-2.1,3.6c-0.5,1.4-0.9,2.9-1,4.6H550.8z"/>
		<path class="st1" d="M602,261h-9l-17.6-20.2V261h-6.5v-53h6.5v32.6l16.9-17.2h8.6l-17.7,17.4L602,261z"/>
		<path class="st0" d="M616.1,259c-0.7,0.8-1.2,1.3-1.6,1.5c-0.4,0.2-0.9,0.3-1.5,0.3c-1.2,0-2.1-0.4-2.8-1.2
			c-0.7-0.8-1.1-2.1-1.1-3.9v-5.2c0-1.9,0.4-3.2,1.1-4c0.7-0.8,1.7-1.2,2.8-1.2c0.9,0,1.7,0.2,2.3,0.7c0.6,0.5,1.1,1.3,1.4,2.4
			c0.3,1.1,0.7,1.9,1,2.3c0.7,0.8,2,1.6,3.9,2.4c1.9,0.8,3.9,1.2,6.1,1.2c3.4,0,6.2-0.8,8.4-2.4c1.4-1,2.1-2.2,2.1-3.6
			c0-0.9-0.3-1.8-1-2.7c-0.7-0.8-1.8-1.5-3.3-2.1c-1-0.4-3.2-0.9-6.7-1.5c-4.2-0.8-7.4-1.7-9.5-2.8c-2.2-1.1-3.9-2.7-5.1-4.7
			c-1.3-2-1.9-4.2-1.9-6.5c0-3.7,1.5-6.9,4.6-9.7c3.1-2.8,7.1-4.1,12-4.1c2,0,3.8,0.2,5.5,0.7c1.7,0.4,3.2,1.1,4.6,2
			c1-1,2-1.5,3-1.5c1.1,0,2,0.4,2.8,1.2c0.7,0.8,1.1,2.1,1.1,3.9v5.8c0,1.9-0.4,3.2-1.1,4c-0.7,0.8-1.6,1.2-2.8,1.2
			c-1,0-1.8-0.3-2.5-0.9c-0.6-0.4-1-1.3-1.2-2.6c-0.3-1.3-0.6-2.2-1.1-2.7c-0.7-0.9-1.8-1.7-3.3-2.4c-1.5-0.7-3.1-1-5-1
			c-2.8,0-5,0.6-6.6,1.9c-1.6,1.3-2.4,2.6-2.4,4c0,1,0.3,1.9,1,2.8c0.7,0.9,1.6,1.6,2.9,2.1c0.9,0.4,3.2,0.9,7.2,1.7
			c3.9,0.8,7,1.6,9.1,2.6c2.1,0.9,3.9,2.4,5.3,4.4c1.4,2,2.1,4.3,2.1,7.1c0,3.8-1.3,6.8-4,9.1c-3.6,3-8.1,4.5-13.6,4.5
			c-2.1,0-4.2-0.3-6.2-0.8C620,260.8,618,260,616.1,259z"/>
		<path class="st0" d="M693.5,244.6c0,3-0.8,5.8-2.5,8.6c-1.6,2.8-4.1,5-7.3,6.6c-3.2,1.6-6.6,2.5-10.2,2.5c-3.5,0-6.9-0.8-10.1-2.4
			c-3.2-1.6-5.6-3.8-7.3-6.6c-1.7-2.8-2.5-5.7-2.5-8.7c0-3.1,0.9-6.1,2.6-9.1c1.7-3,4.1-5.3,7.3-7s6.5-2.6,10-2.6
			c3.5,0,6.9,0.9,10.1,2.6c3.2,1.7,5.7,4.1,7.3,7C692.7,238.4,693.5,241.5,693.5,244.6z M685.8,244.6c0-2.5-0.9-4.8-2.7-6.8
			c-2.4-2.8-5.6-4.2-9.6-4.2c-3.5,0-6.4,1.1-8.7,3.3c-2.3,2.2-3.5,4.8-3.5,7.7c0,2.4,1.2,4.6,3.5,6.7c2.4,2.1,5.2,3.1,8.7,3.1
			c3.5,0,6.4-1,8.7-3.1C684.6,249.3,685.8,247,685.8,244.6z"/>
		<path class="st0" d="M736,226.9v26.4c1.6,0,2.8,0.4,3.6,1.1c0.8,0.7,1.2,1.7,1.2,2.8c0,1.1-0.4,2-1.2,2.8c-0.8,0.7-2.1,1.1-4,1.1
			h-7.3v-1.8c-2.2,1-4.3,1.8-6.3,2.3c-2,0.5-3.9,0.7-5.7,0.7c-2.5,0-4.7-0.5-6.6-1.6c-1.9-1.1-3.3-2.5-4.4-4.4
			c-0.8-1.4-1.2-3-1.2-5.1v-16.6h-1.3c-1.9,0-3.2-0.4-4-1.1c-0.8-0.7-1.2-1.6-1.2-2.8c0-1.1,0.4-2,1.2-2.8c0.8-0.7,2.1-1.1,4-1.1h9
			v22.9c0,1.6,0.4,2.8,1.2,3.6c0.8,0.8,2,1.1,3.6,1.1c1.6,0,3.2-0.3,5-0.9c1.8-0.6,4-1.7,6.6-3.3v-15.7h-2.8c-1.9,0-3.2-0.4-4-1.1
			c-0.8-0.7-1.2-1.6-1.2-2.8c0-1.1,0.4-2,1.2-2.8c0.8-0.7,2.1-1.1,4-1.1H736z"/>
		<path class="st0" d="M764.2,226.9v4.8c3.2-2.3,5.8-3.9,7.6-4.7c1.9-0.8,3.6-1.2,5.2-1.2c2.5,0,4.9,0.9,7.3,2.8
			c1.6,1.3,2.4,2.5,2.4,3.8c0,1.1-0.4,2-1.1,2.8c-0.8,0.8-1.7,1.1-2.8,1.1c-1,0-2-0.5-3-1.4c-1.1-0.9-2-1.4-2.8-1.4
			c-1.1,0-2.7,0.7-4.8,2c-2.1,1.4-4.8,3.4-8,6.1v11.6h11c1.9,0,3.2,0.4,4,1.1c0.8,0.7,1.2,1.6,1.2,2.8c0,1.1-0.4,2-1.2,2.8
			c-0.8,0.7-2.1,1.1-4,1.1h-23.2c-1.9,0-3.2-0.4-4-1.1c-0.8-0.7-1.2-1.6-1.2-2.8c0-1.1,0.4-2,1.2-2.8c0.8-0.7,2.1-1.1,4-1.1h4.6
			v-18.7h-2.8c-1.9,0-3.2-0.4-4-1.1c-0.8-0.7-1.2-1.6-1.2-2.8c0-1.1,0.4-2,1.2-2.8c0.8-0.7,2.1-1.1,4-1.1H764.2z"/>
		<path class="st0" d="M823.9,228.3c0.9-0.9,1.9-1.3,2.9-1.3c1.1,0,2,0.4,2.7,1.2c0.7,0.8,1.1,2.1,1.1,3.9v5c0,1.9-0.4,3.2-1.1,3.9
			c-0.7,0.8-1.6,1.2-2.8,1.2c-1.1,0-1.9-0.3-2.7-0.9c-0.5-0.4-0.9-1.4-1.2-2.8c-0.3-1.4-1-2.4-2.2-3.1c-2-1.2-4.6-1.8-7.8-1.8
			c-3.6,0-6.5,1.1-8.7,3.2c-2.2,2.1-3.3,4.8-3.3,8.1c0,3,1.1,5.4,3.2,7.1c2.1,1.7,5.6,2.6,10.5,2.6c3.2,0,5.8-0.3,7.8-1
			c1.2-0.4,2.3-1.1,3.4-2c1.1-1,2.1-1.4,2.9-1.4c1.1,0,2,0.4,2.7,1.2c0.8,0.8,1.1,1.7,1.1,2.7c0,1.7-1.2,3.3-3.5,4.8
			c-3.5,2.3-8.5,3.4-15.2,3.4c-6,0-10.6-1.2-14-3.7c-4.5-3.3-6.8-7.9-6.8-13.7c0-5.5,1.8-10,5.5-13.6c3.7-3.6,8.4-5.4,14.3-5.4
			c2.1,0,4.1,0.2,5.9,0.6C820.7,226.9,822.3,227.5,823.9,228.3z"/>
		<path class="st0" d="M861.8,226.9v26.4h9.2c1.9,0,3.2,0.4,4,1.1c0.8,0.7,1.2,1.6,1.2,2.8c0,1.1-0.4,2-1.2,2.8
			c-0.8,0.7-2.1,1.1-4,1.1h-26.2c-1.9,0-3.2-0.4-4-1.1c-0.8-0.7-1.2-1.6-1.2-2.8c0-1.1,0.4-2,1.2-2.8c0.8-0.7,2.1-1.1,4-1.1h9.2
			v-18.7H848c-1.8,0-3.1-0.4-3.9-1.1c-0.8-0.7-1.2-1.6-1.2-2.8c0-1.1,0.4-2,1.2-2.8c0.8-0.7,2.1-1.1,4-1.1H861.8z M860.8,212.3v8.1
			h-9.2v-8.1H860.8z"/>
		<path class="st0" d="M896.4,226.9v2.6c1.4-1.2,2.9-2.1,4.6-2.7c1.7-0.6,3.5-0.9,5.5-0.9c4.6,0,8.2,1.4,10.8,4.2
			c2.1,2.3,3.2,5.2,3.2,8.9v14.3c1.6,0,2.8,0.4,3.6,1.1c0.8,0.7,1.2,1.6,1.2,2.8c0,1.1-0.4,2-1.2,2.8c-0.8,0.7-2.1,1.1-4,1.1h-6.9
			c-1.9,0-3.2-0.4-4-1.1c-0.8-0.7-1.2-1.6-1.2-2.8c0-1.1,0.4-2,1.2-2.8c0.8-0.7,2-1.1,3.6-1.1v-14.5c0-1.7-0.5-2.9-1.4-3.7
			c-1.2-1-2.9-1.5-5.3-1.5c-1.8,0-3.3,0.3-4.7,1c-1.3,0.7-3,2.1-5.1,4.4v14.3c2,0,3.3,0.2,3.8,0.6c1.2,0.7,1.8,1.9,1.8,3.3
			c0,1.1-0.4,2-1.2,2.8c-0.8,0.7-2.1,1.1-4,1.1h-8.7c-1.9,0-3.2-0.4-4-1.1c-0.8-0.7-1.2-1.6-1.2-2.8c0-1.4,0.6-2.5,1.8-3.3
			c0.6-0.4,1.9-0.6,3.9-0.6v-18.7c-1.6,0-2.8-0.4-3.6-1.1c-0.8-0.7-1.2-1.7-1.2-2.8c0-1.1,0.4-2,1.2-2.8c0.8-0.7,2.1-1.1,4-1.1
			H896.4z"/>
		<path class="st0" d="M958.8,229.2v-2.3h9c1.9,0,3.2,0.4,4,1.1c0.8,0.7,1.2,1.6,1.2,2.8c0,1.1-0.4,2-1.2,2.8
			c-0.8,0.7-2.1,1.1-4,1.1h-1.3v28c0,2.7-0.6,5.1-1.7,7.1c-1.1,2-2.9,3.7-5.2,5.2c-2.4,1.4-5,2.2-8,2.2h-8.7c-1.9,0-3.2-0.4-4-1.1
			c-0.8-0.7-1.2-1.6-1.2-2.8c0-1.2,0.4-2.1,1.2-2.8c0.8-0.7,2.1-1.1,4-1.1h8.5c2.4,0,4.2-0.6,5.5-1.9c1.3-1.3,2-2.9,2-4.8v-3.8
			c-1.7,1.1-3.4,1.9-5.2,2.5c-1.8,0.6-3.6,0.8-5.4,0.8c-5.2,0-9.6-1.7-13.1-5.2c-3.5-3.5-5.3-7.8-5.3-12.9c0-5.2,1.8-9.5,5.3-13
			c3.5-3.5,7.9-5.2,13.1-5.2c2,0,3.8,0.3,5.6,0.8C955.5,227.2,957.2,228,958.8,229.2z M958.7,243.9c0-2.8-1-5.3-3.1-7.4
			c-2.1-2.1-4.6-3.1-7.5-3.1c-2.9,0-5.4,1-7.5,3.1c-2.1,2.1-3.1,4.5-3.1,7.4c0,2.9,1,5.3,3.1,7.4c2.1,2.1,4.6,3.1,7.5,3.1
			c2.9,0,5.4-1,7.5-3.1C957.7,249.2,958.7,246.8,958.7,243.9z"/>
	</g>
	<g>
		<g>
			<path class="st2" d="M721.8,125.3l-31,22.4v17.3c0,1.3,1.5,2,2.5,1.2l43.1-32.7v-18.2l-43.1-32.7c-1-0.8-2.5,0-2.5,1.2v17.3
				l31,22.4C722.3,124.2,722.3,125,721.8,125.3z"/>
			<path class="st2" d="M650.6,125.3l31,22.4v17.3c0,1.3-1.5,2-2.5,1.2l-43.1-32.7v-18.2L679,82.8c1-0.8,2.5,0,2.5,1.2v17.3
				l-31,22.4C650,124.2,650,125,650.6,125.3z"/>
		</g>
		<path class="st1" d="M686.3,194.6c-39.3,0-71.2-31.9-71.2-71.2s31.9-71.2,71.2-71.2c39.3,0,71.2,31.9,71.2,71.2
			S725.5,194.6,686.3,194.6z M686.3,59.7c-35.1,0-63.7,28.6-63.7,63.7s28.6,63.7,63.7,63.7s63.7-28.6,63.7-63.7
			S721.4,59.7,686.3,59.7z"/>
	</g>
	<g>
		<g>
			<path class="st2" d="M106.7,73.2l-31,22.4v17.3c0,1.3,1.5,2,2.5,1.2l43.1-32.7V63.3L78.3,30.6c-1-0.8-2.5,0-2.5,1.2v17.3l31,22.4
				C107.3,72,107.3,72.8,106.7,73.2z"/>
			<path class="st2" d="M35.5,73.2l31,22.4v17.3c0,1.3-1.5,2-2.5,1.2L20.9,81.5V63.3L64,30.6c1-0.8,2.5,0,2.5,1.2v17.3l-31,22.4
				C35,72,35,72.8,35.5,73.2z"/>
		</g>
		<path class="st1" d="M71.2,142.4C31.9,142.4,0,110.5,0,71.2S31.9,0,71.2,0c39.3,0,71.2,31.9,71.2,71.2S110.5,142.4,71.2,142.4z
			 M71.2,7.5C36.1,7.5,7.5,36.1,7.5,71.2s28.6,63.7,63.7,63.7s63.7-28.6,63.7-63.7S106.3,7.5,71.2,7.5z"/>
	</g>
</g>
<text transform="matrix(1 0 0 1 1079.1755 -59.2848)" style="font-family:'Consolas'; font-size:47.4343px;">Lorem ipsum</text>
<g id="sCzhkf.tif">
	
		<image style="overflow:visible;" width="1432" height="670" id="Layer_0_00000052793083032413798140000009245262890167019152_" xlink:href="ED2C954C9DF53A2D.png"  transform="matrix(0.3426 0 0 0.3426 1052.8844 34.2263)">
	</image>
</g>
</svg>
